<svg id="svg" version="1.1" width="400" height="300" viewBox="0 0 400 300" xmlns="http://www.w3.org/2000/svg" xmlns:xlink="http://www.w3.org/1999/xlink" ><g id="svgg"><path id="path0" d="M165.041 194.622 C 162.310 195.070,159.488 196.090,158.342 197.044 C 157.875 197.432,157.383 197.749,157.249 197.749 C 156.455 197.749,152.142 202.795,152.139 203.727 C 152.139 203.962,151.919 204.396,151.651 204.692 C 150.509 205.954,149.989 211.081,150.675 214.314 C 151.563 218.496,154.908 222.454,160.970 226.496 C 163.715 228.327,166.107 229.769,168.942 231.304 C 170.015 231.884,170.960 232.457,171.043 232.575 C 171.125 232.694,171.665 233.012,172.243 233.283 C 173.607 233.922,174.268 234.328,175.577 235.334 C 176.168 235.788,176.800 236.159,176.982 236.159 C 177.831 236.159,182.410 241.215,182.734 242.510 C 182.913 243.226,183.191 244.045,183.353 244.332 C 184.309 246.032,183.085 250.592,181.048 252.921 C 178.305 256.057,171.681 257.981,167.821 256.765 C 167.035 256.517,165.859 256.224,165.208 256.114 C 164.071 255.923,162.668 255.263,160.090 253.710 C 157.151 251.939,154.277 247.884,153.336 244.181 C 153.158 243.482,152.900 242.641,152.762 242.311 C 152.624 241.980,152.325 241.058,152.099 240.261 C 151.260 237.305,151.089 238.693,151.009 249.118 C 150.924 260.109,150.989 260.595,152.280 258.553 C 153.604 256.459,153.970 256.366,157.741 257.161 C 159.519 257.536,161.180 257.955,161.432 258.091 C 163.863 259.408,174.614 260.494,176.373 259.600 C 176.660 259.455,177.552 259.181,178.357 258.991 C 179.614 258.695,181.898 257.686,184.333 256.351 C 187.903 254.393,192.048 247.219,192.048 242.998 C 192.048 240.132,190.727 235.970,189.147 233.857 C 188.432 232.902,187.847 232.021,187.847 231.900 C 187.847 231.641,181.904 227.156,181.245 226.917 C 180.998 226.828,180.413 226.440,179.947 226.055 C 179.480 225.671,178.973 225.356,178.819 225.356 C 178.665 225.356,177.898 224.911,177.116 224.367 C 176.334 223.823,175.206 223.151,174.610 222.872 C 174.014 222.594,173.356 222.162,173.148 221.911 C 172.940 221.660,172.625 221.455,172.448 221.455 C 172.138 221.455,171.568 221.111,168.683 219.181 C 167.963 218.699,166.894 218.013,166.309 217.656 C 165.723 217.299,164.700 216.556,164.036 216.005 C 162.918 215.078,162.258 214.429,160.431 212.453 C 158.651 210.529,157.842 206.466,158.876 204.651 C 159.111 204.239,159.507 203.463,159.756 202.927 C 163.579 194.694,176.297 195.596,182.588 204.547 C 183.302 205.563,183.983 206.846,184.102 207.398 C 184.221 207.950,184.524 208.803,184.774 209.294 C 185.025 209.784,185.332 211.113,185.457 212.248 C 185.702 214.478,186.064 215.162,186.714 214.622 C 187.448 214.013,187.157 195.225,186.412 195.109 C 186.009 195.046,185.721 195.286,185.469 195.895 C 184.666 197.833,183.147 197.873,177.796 196.094 C 174.944 195.146,173.024 194.692,171.406 194.582 C 170.133 194.495,168.687 194.386,168.192 194.339 C 167.697 194.292,166.279 194.420,165.041 194.622 M291.373 194.664 C 289.096 194.923,283.850 196.783,281.770 198.068 C 281.523 198.221,280.814 198.565,280.195 198.831 C 279.576 199.097,279.070 199.426,279.070 199.562 C 279.070 199.698,278.812 199.891,278.497 199.991 C 277.899 200.181,272.705 205.206,271.796 206.474 C 270.482 208.307,269.478 209.931,269.473 210.231 C 269.470 210.412,269.211 210.792,268.897 211.076 C 268.583 211.360,268.234 212.085,268.121 212.688 C 268.008 213.290,267.657 214.146,267.341 214.590 C 267.025 215.033,266.767 215.675,266.767 216.015 C 266.767 216.355,266.546 217.279,266.277 218.069 C 264.738 222.582,264.742 234.059,266.284 238.110 C 266.535 238.770,266.746 239.663,266.754 240.095 C 266.761 240.526,267.015 241.201,267.319 241.595 C 267.622 241.989,268.010 242.720,268.181 243.221 C 269.075 245.848,276.430 254.764,277.703 254.764 C 277.919 254.764,278.253 254.953,278.445 255.184 C 279.029 255.887,283.964 258.173,285.971 258.670 C 286.714 258.854,287.862 259.149,288.522 259.326 C 290.103 259.750,299.706 259.993,300.170 259.620 C 300.365 259.464,301.842 259.101,303.451 258.815 C 305.060 258.528,306.377 258.185,306.377 258.052 C 306.377 257.920,306.883 257.648,307.502 257.450 C 308.121 257.251,308.830 256.925,309.077 256.726 C 309.325 256.526,309.969 256.188,310.510 255.974 C 311.050 255.760,311.590 255.427,311.710 255.234 C 311.830 255.041,312.401 254.564,312.978 254.173 C 315.227 252.650,321.421 245.002,320.860 244.441 C 320.098 243.679,319.121 244.455,316.749 247.706 C 315.210 249.815,312.987 251.686,309.227 254.037 C 306.261 255.892,298.218 256.897,294.153 255.921 C 290.528 255.050,286.955 253.637,286.259 252.798 C 286.061 252.559,285.708 252.363,285.475 252.363 C 284.286 252.363,278.474 245.306,278.470 243.858 C 278.470 243.719,278.200 243.262,277.869 242.843 C 277.539 242.423,277.269 241.814,277.269 241.490 C 277.269 241.166,277.079 240.475,276.847 239.955 C 275.913 237.867,275.463 234.693,275.226 228.515 C 275.073 224.542,275.116 222.843,275.389 222.064 C 275.593 221.482,275.762 220.413,275.764 219.690 C 275.767 218.966,275.916 217.818,276.095 217.139 C 276.275 216.460,276.619 215.161,276.861 214.254 C 277.102 213.346,277.556 212.063,277.869 211.403 C 278.182 210.743,278.517 209.825,278.613 209.362 C 279.148 206.798,285.287 200.371,288.522 198.989 C 294.368 196.492,300.987 196.482,305.551 198.964 C 305.840 199.121,306.380 199.415,306.752 199.617 C 310.116 201.445,311.612 202.784,313.528 205.682 C 314.408 207.013,315.308 208.305,315.528 208.552 C 315.748 208.800,316.027 209.542,316.147 210.203 C 316.268 210.863,316.617 211.725,316.923 212.118 C 317.229 212.512,317.479 213.142,317.479 213.519 C 317.479 215.109,318.356 215.719,318.976 214.561 C 319.200 214.141,319.196 213.371,318.960 211.935 C 318.776 210.817,318.639 207.877,318.654 205.401 C 318.670 202.744,318.540 200.470,318.336 199.850 C 318.147 199.272,317.910 197.922,317.811 196.849 C 317.636 194.965,316.279 193.505,316.279 195.201 C 316.279 197.059,311.546 198.276,309.837 196.857 C 309.624 196.680,308.664 196.330,307.705 196.081 C 306.746 195.831,305.796 195.489,305.594 195.322 C 304.797 194.660,295.277 194.220,291.373 194.664 M79.634 196.085 C 79.378 196.753,79.709 197.062,80.929 197.291 C 82.419 197.570,83.682 198.870,84.350 200.809 C 85.176 203.206,85.233 250.573,84.413 253.172 C 83.511 256.035,80.976 257.759,77.662 257.763 C 76.139 257.765,75.511 258.185,76.598 258.476 C 77.480 258.713,101.535 258.719,102.151 258.483 C 103.096 258.120,102.593 257.764,101.134 257.764 C 98.065 257.764,94.804 255.606,94.371 253.289 C 94.260 252.697,94.042 252.058,93.886 251.870 C 93.354 251.225,93.691 229.060,94.242 228.510 C 94.952 227.801,123.804 227.802,124.513 228.511 C 125.274 229.271,125.343 250.556,124.593 252.778 C 123.554 255.857,120.886 257.764,117.621 257.764 C 116.162 257.764,115.658 258.120,116.604 258.483 C 117.224 258.720,141.441 258.720,142.061 258.483 C 143.000 258.122,142.507 257.764,141.073 257.764 C 137.999 257.764,135.380 256.011,134.382 253.284 C 133.570 251.067,133.595 203.149,134.409 200.792 C 135.099 198.792,136.167 197.692,137.814 197.285 C 138.767 197.049,139.085 196.824,139.085 196.385 C 139.085 195.591,120.394 195.298,119.744 196.082 C 119.222 196.711,119.561 197.068,120.892 197.293 C 124.464 197.896,125.122 200.406,125.127 213.442 L 125.131 223.583 124.395 224.320 L 123.658 225.056 109.377 225.056 L 95.095 225.056 94.359 224.262 L 93.623 223.468 93.623 213.224 C 93.623 199.921,94.188 197.998,98.345 197.135 C 99.921 196.808,99.955 196.779,99.451 196.223 C 98.750 195.448,79.928 195.317,79.634 196.085 M202.564 196.224 C 202.279 196.757,202.359 196.842,203.311 197.021 C 204.951 197.329,206.558 199.058,207.055 201.050 C 207.729 203.755,207.842 250.566,207.180 252.845 C 206.286 255.918,203.844 257.764,200.673 257.764 C 199.003 257.764,198.211 258.132,199.126 258.483 C 200.287 258.929,235.385 258.673,236.268 258.213 C 236.741 257.966,237.603 257.764,238.184 257.764 C 239.819 257.764,243.160 257.108,243.661 256.688 C 243.908 256.481,244.516 256.215,245.011 256.097 C 247.959 255.397,251.745 251.777,253.622 247.862 C 257.533 239.702,253.116 229.802,244.793 228.074 C 243.503 227.806,243.071 227.569,242.803 226.980 C 242.336 225.954,242.305 226.008,243.736 225.335 C 245.704 224.410,246.107 224.117,247.627 222.506 C 249.488 220.532,250.563 219.186,250.563 218.828 C 250.563 218.669,250.900 217.474,251.313 216.174 C 252.393 212.772,252.011 209.162,250.161 205.269 C 249.405 203.681,244.758 199.384,243.249 198.879 C 242.733 198.706,242.106 198.389,241.856 198.174 C 241.605 197.959,240.744 197.636,239.942 197.457 C 239.140 197.277,238.197 196.968,237.846 196.771 C 235.906 195.677,203.129 195.169,202.564 196.224 M229.707 198.950 C 229.809 199.115,230.224 199.250,230.629 199.250 C 231.035 199.250,231.600 199.374,231.887 199.526 C 232.174 199.677,233.286 200.232,234.359 200.759 C 240.419 203.734,243.190 211.328,240.676 218.072 C 239.528 221.152,236.003 224.156,233.538 224.156 C 233.041 224.156,232.060 224.359,231.358 224.606 C 229.004 225.436,220.144 225.239,218.042 224.310 L 216.354 223.563 216.354 212.004 C 216.354 198.924,216.191 199.775,218.836 199.054 C 220.430 198.620,229.450 198.533,229.707 198.950 M233.308 228.909 C 242.027 231.457,246.725 238.786,244.362 246.155 C 243.334 249.361,239.900 252.773,236.426 254.041 C 232.263 255.560,225.466 256.118,221.930 255.231 C 220.905 254.974,219.587 254.764,219.001 254.764 C 218.251 254.764,217.703 254.530,217.145 253.973 L 216.354 253.181 216.354 241.714 C 216.354 229.638,216.466 228.475,217.659 228.210 C 220.203 227.645,230.568 228.108,233.308 228.909 " stroke="none" fill="#434343" fill-rule="evenodd"></path><path id="path1" d="M129.830 25.538 C 128.576 25.832,127.862 26.441,123.228 31.164 C 121.552 32.873,119.775 34.654,119.280 35.122 C 118.785 35.590,113.991 40.382,108.627 45.772 C 103.263 51.162,98.470 55.955,97.974 56.424 C 93.676 60.494,61.635 92.819,61.358 93.365 C 61.016 94.043,62.487 95.560,95.016 128.071 L 129.032 162.069 129.032 94.559 C 129.032 33.623,129.078 27.004,129.503 26.579 C 130.187 25.895,130.377 26.047,136.384 32.096 C 148.669 44.468,162.249 57.925,163.091 58.562 C 164.604 59.708,166.968 62.025,181.953 77.057 C 189.898 85.028,196.761 91.744,197.203 91.983 L 198.006 92.416 214.823 75.615 C 224.072 66.375,231.793 58.815,231.981 58.815 C 232.701 58.815,265.253 25.913,264.891 25.551 C 264.463 25.123,131.651 25.110,129.830 25.538 M268.156 26.782 C 267.803 28.101,267.943 160.790,268.298 161.009 C 268.650 161.227,335.773 94.321,335.780 93.746 C 335.783 93.494,268.650 26.107,268.396 26.107 C 268.364 26.107,268.256 26.410,268.156 26.782 M196.983 96.303 C 196.497 96.609,193.837 99.135,191.073 101.918 C 188.309 104.700,185.878 107.130,185.672 107.316 C 185.366 107.593,176.451 116.524,175.156 117.851 C 171.741 121.350,164.870 128.049,163.841 128.882 C 163.098 129.484,155.262 137.190,146.427 146.008 C 136.476 155.940,130.139 162.048,129.773 162.060 C 129.251 162.076,129.263 162.111,129.875 162.356 C 130.373 162.556,235.824 162.782,264.291 162.644 C 264.662 162.642,264.966 162.481,264.966 162.286 C 264.966 161.851,232.429 129.332,231.995 129.332 C 231.824 129.332,224.280 121.939,215.229 112.903 C 195.921 93.625,198.097 95.605,196.983 96.303 " stroke="none" fill="#fb0506" fill-rule="evenodd"></path><path id="path2" d="M1.639 1.875 C 1.561 2.082,1.531 68.890,1.574 150.338 L 1.650 298.425 199.550 298.506 C 308.395 298.551,397.757 298.514,398.134 298.423 L 398.818 298.259 398.734 150.255 C 398.688 68.852,398.540 2.082,398.407 1.875 C 398.213 1.576,358.196 1.500,199.973 1.500 C 41.696 1.500,1.753 1.576,1.639 1.875 M267.571 24.647 C 268.614 24.999,269.467 25.399,269.467 25.535 C 269.467 25.672,284.526 40.841,302.931 59.244 C 328.021 84.332,336.439 92.924,336.570 93.576 C 336.792 94.687,269.178 162.641,267.850 162.641 C 267.419 162.641,266.941 162.938,266.644 163.391 L 266.153 164.141 198.014 164.141 C 123.943 164.141,128.489 164.238,127.984 162.646 C 127.903 162.391,126.046 160.396,123.858 158.213 C 121.670 156.030,119.713 154.074,119.508 153.866 C 118.244 152.583,109.311 143.628,109.007 143.338 C 107.993 142.374,67.536 101.946,66.719 101.080 C 66.197 100.527,64.415 98.748,62.759 97.125 C 59.941 94.364,59.767 94.125,60.047 93.389 C 60.414 92.424,128.072 24.729,129.069 24.330 C 129.513 24.152,155.457 24.037,197.728 24.025 L 265.674 24.006 267.571 24.647 M249.512 42.954 C 240.435 52.050,232.536 59.794,231.958 60.164 C 231.380 60.533,229.962 61.809,228.807 62.998 C 227.652 64.188,225.436 66.400,223.884 67.914 C 222.331 69.429,220.306 71.460,219.383 72.429 C 218.460 73.398,216.032 75.828,213.989 77.830 C 211.945 79.832,209.244 82.536,207.987 83.838 C 206.730 85.140,204.910 86.963,203.942 87.889 C 202.974 88.815,201.255 90.494,200.121 91.620 C 198.523 93.207,197.925 93.624,197.461 93.477 C 197.131 93.372,189.465 85.902,180.424 76.876 C 171.384 67.850,163.527 60.128,162.965 59.715 C 162.403 59.302,154.753 51.780,145.965 42.999 C 135.048 32.090,129.933 27.172,129.818 27.474 C 129.558 28.149,129.642 159.708,129.902 160.372 C 130.095 160.864,132.578 158.505,145.936 145.141 C 154.630 136.443,162.316 128.886,163.017 128.347 C 163.718 127.809,171.610 120.057,180.555 111.121 C 189.500 102.185,197.109 94.782,197.464 94.669 C 198.078 94.474,207.111 103.214,223.790 120.139 C 228.788 125.209,231.259 127.568,232.150 128.116 C 232.622 128.407,240.457 136.097,249.562 145.205 C 261.301 156.949,266.188 161.653,266.366 161.378 C 266.808 160.694,266.836 27.514,266.394 26.923 C 266.061 26.477,264.072 28.366,249.512 42.954 M171.193 193.554 C 171.853 193.707,173.406 194.054,174.644 194.325 C 175.881 194.595,177.097 194.989,177.344 195.200 C 177.592 195.411,178.402 195.680,179.145 195.798 C 179.887 195.916,180.907 196.263,181.411 196.568 C 182.696 197.349,185.146 196.430,185.146 195.166 C 185.146 193.978,187.282 193.392,187.836 194.429 C 188.357 195.401,188.253 215.592,187.726 216.030 C 186.413 217.119,185.303 215.838,185.045 212.935 C 184.944 211.797,184.670 210.649,184.436 210.384 C 184.202 210.119,183.915 209.313,183.796 208.593 C 183.678 207.873,183.256 206.793,182.858 206.193 C 182.460 205.592,181.968 204.838,181.765 204.516 C 181.008 203.318,178.069 200.514,177.344 200.299 C 176.932 200.177,176.405 199.924,176.174 199.738 C 174.331 198.253,167.991 197.167,166.891 198.148 C 166.617 198.393,165.815 198.747,165.109 198.935 C 163.754 199.296,160.735 202.055,160.351 203.284 C 160.244 203.623,159.906 204.223,159.599 204.617 C 158.920 205.486,158.827 208.411,159.449 209.311 C 159.675 209.636,159.964 210.240,160.091 210.653 C 160.219 211.065,160.609 211.680,160.957 212.019 C 161.305 212.358,161.949 213.033,162.388 213.520 C 163.677 214.948,164.396 215.504,168.192 218.011 C 170.173 219.319,171.860 220.473,171.943 220.576 C 172.093 220.763,172.857 221.196,175.094 222.362 C 175.754 222.706,176.902 223.384,177.644 223.869 C 178.387 224.355,179.355 224.897,179.796 225.075 C 180.237 225.253,180.671 225.591,180.762 225.827 C 180.852 226.063,181.115 226.257,181.345 226.257 C 181.575 226.257,182.241 226.628,182.825 227.082 C 183.408 227.536,184.259 228.177,184.715 228.507 C 185.171 228.837,186.013 229.479,186.587 229.932 C 187.160 230.386,187.746 230.758,187.888 230.758 C 188.031 230.758,188.147 230.945,188.147 231.173 C 188.147 231.402,188.727 232.313,189.436 233.199 C 191.724 236.056,192.198 237.704,192.198 242.805 C 192.198 246.450,192.114 247.294,191.706 247.756 C 191.436 248.062,191.124 248.740,191.013 249.263 C 190.902 249.785,190.549 250.515,190.229 250.884 C 189.909 251.253,189.647 251.713,189.647 251.906 C 189.647 252.832,184.665 257.092,182.296 258.191 C 180.975 258.804,179.490 259.532,178.995 259.810 C 177.671 260.553,165.546 260.565,164.416 259.824 C 164.004 259.554,162.883 259.171,161.925 258.972 C 160.967 258.773,159.755 258.431,159.231 258.212 C 158.707 257.994,157.322 257.720,156.152 257.605 L 154.025 257.395 153.043 258.763 C 151.948 260.289,151.360 260.640,150.750 260.133 C 150.069 259.569,150.151 238.960,150.837 237.980 L 151.337 237.266 151.888 237.946 C 152.190 238.320,152.438 238.837,152.438 239.094 C 152.438 239.352,152.625 239.776,152.852 240.036 C 153.080 240.297,153.416 241.390,153.599 242.465 C 153.782 243.541,154.203 244.954,154.535 245.605 C 154.867 246.256,155.139 246.977,155.139 247.207 C 155.139 248.083,158.946 252.303,160.412 253.053 C 160.919 253.312,161.502 253.727,161.708 253.974 C 161.914 254.222,162.510 254.519,163.032 254.634 C 163.555 254.748,164.316 255.061,164.723 255.328 C 165.334 255.728,166.366 255.813,170.579 255.809 C 177.071 255.803,178.570 255.163,181.742 251.043 C 182.967 249.452,182.934 243.229,181.693 241.858 C 181.447 241.586,181.245 241.264,181.245 241.142 C 181.245 240.714,178.073 237.783,176.332 236.603 C 173.268 234.526,173.020 234.374,171.718 233.771 C 171.017 233.446,170.443 233.054,170.443 232.901 C 170.443 232.748,170.082 232.533,169.641 232.422 C 169.200 232.311,168.507 231.959,168.100 231.639 C 167.694 231.319,167.193 231.058,166.988 231.058 C 166.783 231.058,166.437 230.844,166.220 230.582 C 166.003 230.320,165.311 229.901,164.683 229.649 C 164.055 229.398,163.541 229.072,163.541 228.925 C 163.541 228.778,163.343 228.657,163.101 228.657 C 162.859 228.657,162.200 228.252,161.636 227.757 C 161.072 227.262,160.533 226.857,160.439 226.857 C 160.267 226.857,158.609 225.796,157.287 224.839 C 156.527 224.289,154.959 222.755,153.420 221.055 C 151.947 219.428,150.750 217.278,150.343 215.528 C 150.142 214.661,149.856 213.877,149.707 213.785 C 149.349 213.563,149.358 207.736,149.718 207.514 C 149.872 207.419,150.213 206.601,150.476 205.696 C 150.739 204.791,151.064 204.051,151.199 204.051 C 151.333 204.051,151.603 203.518,151.798 202.866 C 152.037 202.069,152.859 200.966,154.315 199.494 C 156.318 197.466,157.040 196.919,159.040 195.911 C 159.452 195.703,159.992 195.368,160.240 195.167 C 160.488 194.966,161.433 194.664,162.341 194.496 C 163.248 194.328,164.464 193.983,165.041 193.731 C 166.218 193.216,169.355 193.126,171.193 193.554 M301.465 193.995 C 301.768 194.298,302.511 194.449,303.707 194.449 C 304.691 194.449,305.998 194.663,306.611 194.925 C 307.225 195.187,308.402 195.582,309.227 195.803 C 310.053 196.024,311.133 196.416,311.628 196.675 C 313.372 197.587,314.939 196.853,315.902 194.674 C 316.182 194.039,316.473 193.848,317.162 193.848 C 318.632 193.848,318.755 194.450,318.903 202.389 C 319.008 208.013,319.138 209.801,319.491 210.503 C 320.210 211.934,320.367 215.224,319.745 215.846 C 318.590 217.001,317.327 216.193,317.013 214.100 C 316.902 213.359,316.713 212.753,316.593 212.753 C 316.291 212.753,315.679 211.346,315.679 210.652 C 315.679 210.077,314.591 208.215,313.736 207.327 C 313.484 207.065,313.278 206.705,313.278 206.527 C 313.278 205.899,309.462 201.650,308.898 201.650 C 308.679 201.650,308.259 201.397,307.964 201.087 C 307.668 200.778,307.089 200.424,306.677 200.302 C 306.264 200.179,305.724 199.912,305.476 199.707 C 304.894 199.226,303.173 198.650,302.318 198.650 C 301.950 198.650,301.481 198.447,301.275 198.200 C 300.982 197.846,300.144 197.749,297.374 197.749 C 294.605 197.749,293.767 197.846,293.473 198.200 C 293.268 198.447,292.813 198.656,292.461 198.663 C 291.437 198.684,289.007 199.395,288.613 199.789 C 288.415 199.987,288.083 200.150,287.877 200.150 C 287.671 200.150,287.139 200.488,286.693 200.900 C 286.248 201.313,285.802 201.651,285.703 201.651 C 285.435 201.652,281.770 205.253,281.770 205.515 C 281.770 205.638,281.531 206.000,281.238 206.320 C 280.363 207.275,279.325 209.209,278.872 210.728 C 278.638 211.512,278.335 212.153,278.199 212.153 C 277.929 212.153,277.269 215.100,277.269 216.305 C 277.269 216.719,277.033 217.318,276.744 217.637 C 275.984 218.478,275.938 236.366,276.694 237.253 C 276.955 237.559,277.321 238.671,277.508 239.724 C 277.695 240.777,278.038 241.858,278.271 242.125 C 278.503 242.392,278.853 243.106,279.047 243.712 C 279.242 244.318,279.596 244.976,279.835 245.174 C 280.074 245.372,280.270 245.786,280.270 246.094 C 280.270 247.265,287.085 253.263,288.415 253.263 C 288.644 253.263,289.357 253.545,290.001 253.890 C 290.644 254.235,291.890 254.591,292.770 254.682 C 293.650 254.773,294.522 255.031,294.708 255.256 C 295.283 255.948,301.925 255.812,304.054 255.064 C 304.993 254.734,305.976 254.464,306.238 254.464 C 307.694 254.464,312.484 251.395,314.669 249.062 C 316.017 247.623,318.680 244.235,318.680 243.959 C 318.680 243.215,320.578 242.967,321.124 243.640 C 321.977 244.694,321.528 245.728,318.831 248.912 C 318.272 249.572,317.260 250.825,316.584 251.695 C 315.907 252.566,314.785 253.681,314.091 254.173 C 313.396 254.665,312.455 255.405,311.998 255.816 C 311.541 256.227,310.984 256.564,310.759 256.564 C 310.535 256.564,310.190 256.758,309.994 256.995 C 309.797 257.232,309.247 257.511,308.771 257.616 C 308.295 257.720,307.595 258.049,307.216 258.347 C 306.837 258.645,305.948 258.985,305.241 259.105 C 304.534 259.224,303.521 259.545,302.991 259.818 C 301.541 260.565,287.810 260.562,286.978 259.815 C 286.672 259.540,285.881 259.219,285.221 259.101 C 280.995 258.346,272.393 252.088,270.470 248.371 C 270.206 247.860,269.805 247.256,269.578 247.030 C 269.352 246.804,269.167 246.503,269.167 246.362 C 269.167 246.220,268.991 245.926,268.775 245.708 C 268.251 245.178,266.467 241.574,266.467 241.046 C 266.467 240.816,266.191 240.022,265.854 239.283 C 265.517 238.544,265.160 237.032,265.060 235.924 C 264.959 234.815,264.695 233.642,264.472 233.317 C 263.867 232.434,263.896 223.595,264.507 222.788 C 264.749 222.468,264.951 221.773,264.957 221.245 C 264.970 219.915,265.542 217.369,266.045 216.406 C 266.275 215.965,266.464 215.318,266.465 214.969 C 266.466 214.620,266.737 213.991,267.067 213.572 C 267.397 213.152,267.667 212.552,267.667 212.239 C 267.667 211.926,268.005 211.212,268.417 210.653 C 268.830 210.093,269.167 209.507,269.167 209.350 C 269.167 208.134,276.634 199.850,277.730 199.850 C 277.960 199.850,278.287 199.591,278.457 199.274 C 278.626 198.957,279.228 198.545,279.794 198.358 C 280.359 198.172,280.974 197.836,281.159 197.613 C 281.344 197.391,281.861 197.117,282.308 197.005 C 282.755 196.894,283.323 196.638,283.571 196.437 C 284.473 195.703,287.383 194.743,289.514 194.476 C 290.715 194.325,291.861 194.069,292.060 193.907 C 293.023 193.126,300.668 193.198,301.465 193.995 M103.166 195.109 C 104.293 196.236,103.220 197.441,101.070 197.462 C 98.573 197.488,97.207 197.926,96.063 199.071 L 94.974 200.159 94.804 211.783 C 94.701 218.835,94.745 223.553,94.916 223.781 C 95.134 224.072,98.383 224.156,109.377 224.156 C 120.371 224.156,123.621 224.072,123.839 223.781 C 124.010 223.553,124.053 218.835,123.951 211.783 L 123.781 200.159 122.705 199.084 C 121.542 197.921,120.186 197.468,117.835 197.457 C 115.544 197.445,114.424 196.274,115.589 195.109 C 115.970 194.727,141.990 194.558,142.961 194.931 C 143.263 195.047,143.436 195.478,143.436 196.118 C 143.436 197.244,143.431 197.246,139.421 197.615 C 137.508 197.792,137.273 197.893,136.213 199.008 C 134.640 200.662,134.686 199.709,134.791 228.507 L 134.884 253.713 135.784 254.839 C 136.282 255.461,136.952 255.965,137.284 255.966 C 137.614 255.967,138.290 256.236,138.785 256.564 C 139.412 256.980,140.193 257.161,141.364 257.162 C 143.717 257.165,144.594 258.031,143.007 258.785 C 141.404 259.545,116.116 259.381,115.340 258.605 C 114.489 257.753,115.254 257.248,117.592 257.115 C 119.010 257.035,119.796 256.841,120.155 256.482 C 120.440 256.197,120.971 255.964,121.335 255.964 C 122.232 255.964,123.513 254.434,123.776 253.047 C 124.165 251.001,123.955 228.858,123.544 228.596 C 123.344 228.468,116.834 228.395,109.077 228.435 L 94.974 228.507 94.824 239.760 C 94.634 254.025,94.879 255.434,97.671 256.098 C 98.165 256.216,98.663 256.465,98.779 256.652 C 98.895 256.839,99.903 257.030,101.020 257.077 C 103.429 257.177,104.297 257.722,103.430 258.590 C 102.667 259.353,77.063 259.561,75.622 258.816 C 73.933 257.943,74.865 257.170,77.625 257.155 C 79.733 257.144,81.777 256.237,83.019 254.762 L 83.871 253.749 83.963 228.525 C 84.081 196.394,84.356 198.060,78.859 197.577 C 76.005 197.326,75.629 197.199,75.245 196.358 C 74.523 194.772,74.725 194.749,89.420 194.749 C 99.431 194.749,102.896 194.839,103.166 195.109 M232.558 195.199 C 232.983 195.442,234.130 195.632,235.203 195.638 C 236.380 195.645,237.631 195.871,238.504 196.235 C 239.277 196.557,240.468 196.963,241.150 197.137 C 241.833 197.311,242.551 197.647,242.746 197.882 C 242.942 198.118,243.503 198.399,243.994 198.507 C 244.934 198.713,250.863 204.357,250.863 205.045 C 250.863 205.246,251.155 205.948,251.511 206.606 C 252.424 208.289,252.684 214.912,251.918 216.954 C 250.536 220.635,250.827 220.193,247.754 223.282 C 246.261 224.782,245.355 225.443,244.458 225.684 L 243.221 226.017 244.055 226.735 C 244.514 227.130,245.255 227.527,245.701 227.618 C 246.694 227.821,249.332 229.175,250.008 229.828 C 250.280 230.092,251.195 230.973,252.041 231.787 C 252.887 232.601,253.658 233.580,253.754 233.963 C 253.850 234.346,254.027 234.659,254.148 234.659 C 254.437 234.659,255.063 236.050,255.066 236.698 C 255.067 236.979,255.269 237.596,255.516 238.069 C 256.110 239.208,256.120 243.584,255.532 244.926 C 255.295 245.468,255.024 246.273,254.932 246.716 C 254.839 247.158,254.559 247.724,254.309 247.974 C 254.060 248.223,253.773 248.841,253.672 249.347 C 253.472 250.347,249.763 254.360,248.267 255.194 C 247.797 255.457,247.209 255.797,246.962 255.949 C 245.868 256.625,243.041 257.764,242.459 257.764 C 242.108 257.764,241.526 257.929,241.166 258.130 C 239.326 259.157,200.222 259.783,198.352 258.816 C 196.633 257.927,197.439 257.314,200.610 257.098 C 202.862 256.944,204.358 256.239,205.851 254.625 L 206.602 253.815 206.602 227.658 C 206.602 213.271,206.499 201.134,206.374 200.687 C 205.783 198.579,203.663 197.460,200.246 197.453 C 198.074 197.448,196.812 195.925,198.275 195.073 C 199.177 194.547,231.627 194.667,232.558 195.199 M219.823 199.709 C 219.502 199.952,218.936 200.150,218.565 200.150 C 218.194 200.150,217.807 200.284,217.706 200.447 C 217.341 201.037,217.469 223.291,217.839 223.659 C 218.552 224.369,233.576 224.103,234.577 223.363 C 235.041 223.021,235.731 222.642,236.110 222.521 C 237.481 222.086,239.670 219.500,239.886 218.059 C 239.995 217.331,240.277 216.481,240.513 216.170 C 241.006 215.518,241.149 209.905,240.680 209.615 C 240.526 209.519,240.189 208.719,239.933 207.836 C 239.676 206.953,239.262 206.061,239.013 205.854 C 238.764 205.647,238.560 205.351,238.560 205.195 C 238.560 204.651,235.292 201.650,234.700 201.650 C 234.371 201.650,233.899 201.448,233.652 201.201 C 233.055 200.604,231.813 200.150,230.775 200.150 C 230.311 200.150,229.763 199.947,229.557 199.700 C 229.020 199.052,220.681 199.060,219.823 199.709 M218.080 228.564 C 217.789 228.640,217.548 228.993,217.540 229.354 C 217.352 237.811,217.518 252.936,217.804 253.470 C 218.548 254.859,232.588 255.248,234.694 253.938 C 235.291 253.567,236.010 253.263,236.291 253.263 C 237.524 253.263,241.615 250.095,242.673 248.320 C 243.730 246.546,243.811 246.118,243.811 242.311 C 243.811 238.787,243.746 238.305,243.136 237.324 C 242.764 236.727,242.461 236.079,242.461 235.884 C 242.461 235.487,239.637 232.573,238.802 232.108 C 235.987 230.541,234.223 229.827,232.517 229.564 C 231.421 229.395,230.138 229.055,229.666 228.809 C 228.837 228.376,219.549 228.180,218.080 228.564 " stroke="none" fill="#fbfbfb" fill-rule="evenodd"></path><path id="path3" d="M0.000 150.038 L 0.000 300.075 200.000 300.075 L 400.000 300.075 400.000 150.038 L 400.000 0.000 200.000 0.000 L 0.000 0.000 0.000 150.038 M398.407 1.875 C 398.540 2.082,398.688 68.852,398.734 150.255 L 398.818 298.259 398.134 298.423 C 397.757 298.514,308.395 298.551,199.550 298.506 L 1.650 298.425 1.574 150.338 C 1.531 68.890,1.561 2.082,1.639 1.875 C 1.849 1.323,398.049 1.323,398.407 1.875 M165.041 193.731 C 164.464 193.983,163.248 194.328,162.341 194.496 C 161.433 194.664,160.488 194.966,160.240 195.167 C 159.992 195.368,159.452 195.703,159.040 195.911 C 157.040 196.919,156.318 197.466,154.315 199.494 C 152.859 200.966,152.037 202.069,151.798 202.866 C 151.603 203.518,151.333 204.051,151.199 204.051 C 151.064 204.051,150.739 204.791,150.476 205.696 C 150.213 206.601,149.872 207.419,149.718 207.514 C 149.358 207.736,149.349 213.563,149.707 213.785 C 149.856 213.877,150.142 214.661,150.343 215.528 C 150.750 217.278,151.947 219.428,153.420 221.055 C 154.959 222.755,156.527 224.289,157.287 224.839 C 158.609 225.796,160.267 226.857,160.439 226.857 C 160.533 226.857,161.072 227.262,161.636 227.757 C 162.200 228.252,162.859 228.657,163.101 228.657 C 163.343 228.657,163.541 228.778,163.541 228.925 C 163.541 229.072,164.055 229.398,164.683 229.649 C 165.311 229.901,166.003 230.320,166.220 230.582 C 166.437 230.844,166.783 231.058,166.988 231.058 C 167.193 231.058,167.694 231.319,168.100 231.639 C 168.507 231.959,169.200 232.311,169.641 232.422 C 170.082 232.533,170.443 232.748,170.443 232.901 C 170.443 233.054,171.017 233.446,171.718 233.771 C 173.020 234.374,173.268 234.526,176.332 236.603 C 178.073 237.783,181.245 240.714,181.245 241.142 C 181.245 241.264,181.447 241.586,181.693 241.858 C 182.934 243.229,182.967 249.452,181.742 251.043 C 178.570 255.163,177.071 255.803,170.579 255.809 C 166.366 255.813,165.334 255.728,164.723 255.328 C 164.316 255.061,163.555 254.748,163.032 254.634 C 162.510 254.519,161.914 254.222,161.708 253.974 C 161.502 253.727,160.919 253.312,160.412 253.053 C 158.946 252.303,155.139 248.083,155.139 247.207 C 155.139 246.977,154.867 246.256,154.535 245.605 C 154.203 244.954,153.782 243.541,153.599 242.465 C 153.416 241.390,153.080 240.297,152.852 240.036 C 152.625 239.776,152.438 239.352,152.438 239.094 C 152.438 238.837,152.190 238.320,151.888 237.946 L 151.337 237.266 150.837 237.980 C 150.151 238.960,150.069 259.569,150.750 260.133 C 151.360 260.640,151.948 260.289,153.043 258.763 L 154.025 257.395 156.152 257.605 C 157.322 257.720,158.707 257.994,159.231 258.212 C 159.755 258.431,160.967 258.773,161.925 258.972 C 162.883 259.171,164.004 259.554,164.416 259.824 C 165.546 260.565,177.671 260.553,178.995 259.810 C 179.490 259.532,180.975 258.804,182.296 258.191 C 184.665 257.092,189.647 252.832,189.647 251.906 C 189.647 251.713,189.909 251.253,190.229 250.884 C 190.549 250.515,190.902 249.785,191.013 249.263 C 191.124 248.740,191.436 248.062,191.706 247.756 C 192.114 247.294,192.198 246.450,192.198 242.805 C 192.198 237.704,191.724 236.056,189.436 233.199 C 188.727 232.313,188.147 231.402,188.147 231.173 C 188.147 230.945,188.031 230.758,187.888 230.758 C 187.746 230.758,187.160 230.386,186.587 229.932 C 186.013 229.479,185.171 228.837,184.715 228.507 C 184.259 228.177,183.408 227.536,182.825 227.082 C 182.241 226.628,181.575 226.257,181.345 226.257 C 181.115 226.257,180.852 226.063,180.762 225.827 C 180.671 225.591,180.237 225.253,179.796 225.075 C 179.355 224.897,178.387 224.355,177.644 223.869 C 176.902 223.384,175.754 222.706,175.094 222.362 C 172.857 221.196,172.093 220.763,171.943 220.576 C 171.860 220.473,170.173 219.319,168.192 218.011 C 164.396 215.504,163.677 214.948,162.388 213.520 C 161.949 213.033,161.305 212.358,160.957 212.019 C 160.609 211.680,160.219 211.065,160.091 210.653 C 159.964 210.240,159.675 209.636,159.449 209.311 C 158.827 208.411,158.920 205.486,159.599 204.617 C 159.906 204.223,160.244 203.623,160.351 203.284 C 160.735 202.055,163.754 199.296,165.109 198.935 C 165.815 198.747,166.617 198.393,166.891 198.148 C 167.991 197.167,174.331 198.253,176.174 199.738 C 176.405 199.924,176.932 200.177,177.344 200.299 C 178.069 200.514,181.008 203.318,181.765 204.516 C 181.968 204.838,182.460 205.592,182.858 206.193 C 183.256 206.793,183.678 207.873,183.796 208.593 C 183.915 209.313,184.202 210.119,184.436 210.384 C 184.670 210.649,184.944 211.797,185.045 212.935 C 185.303 215.838,186.413 217.119,187.726 216.030 C 188.253 215.592,188.357 195.401,187.836 194.429 C 187.282 193.392,185.146 193.978,185.146 195.166 C 185.146 196.430,182.696 197.349,181.411 196.568 C 180.907 196.263,179.887 195.916,179.145 195.798 C 178.402 195.680,177.592 195.411,177.344 195.200 C 177.097 194.989,175.881 194.595,174.644 194.325 C 173.406 194.054,171.853 193.707,171.193 193.554 C 169.355 193.126,166.218 193.216,165.041 193.731 M293.023 193.461 C 292.693 193.544,292.260 193.745,292.060 193.907 C 291.861 194.069,290.715 194.325,289.514 194.476 C 287.383 194.743,284.473 195.703,283.571 196.437 C 283.323 196.638,282.755 196.894,282.308 197.005 C 281.861 197.117,281.344 197.391,281.159 197.613 C 280.974 197.836,280.359 198.172,279.794 198.358 C 279.228 198.545,278.626 198.957,278.457 199.274 C 278.287 199.591,277.960 199.850,277.730 199.850 C 276.634 199.850,269.167 208.134,269.167 209.350 C 269.167 209.507,268.830 210.093,268.417 210.653 C 268.005 211.212,267.667 211.926,267.667 212.239 C 267.667 212.552,267.397 213.152,267.067 213.572 C 266.737 213.991,266.466 214.620,266.465 214.969 C 266.464 215.318,266.275 215.965,266.045 216.406 C 265.542 217.369,264.970 219.915,264.957 221.245 C 264.951 221.773,264.749 222.468,264.507 222.788 C 263.896 223.595,263.867 232.434,264.472 233.317 C 264.695 233.642,264.959 234.815,265.060 235.924 C 265.160 237.032,265.517 238.544,265.854 239.283 C 266.191 240.022,266.467 240.816,266.467 241.046 C 266.467 241.574,268.251 245.178,268.775 245.708 C 268.991 245.926,269.167 246.220,269.167 246.362 C 269.167 246.503,269.352 246.804,269.578 247.030 C 269.805 247.256,270.206 247.860,270.470 248.371 C 272.393 252.088,280.995 258.346,285.221 259.101 C 285.881 259.219,286.672 259.540,286.978 259.815 C 287.810 260.562,301.541 260.565,302.991 259.818 C 303.521 259.545,304.534 259.224,305.241 259.105 C 305.948 258.985,306.837 258.645,307.216 258.347 C 307.595 258.049,308.295 257.720,308.771 257.616 C 309.247 257.511,309.797 257.232,309.994 256.995 C 310.190 256.758,310.535 256.564,310.759 256.564 C 310.984 256.564,311.541 256.227,311.998 255.816 C 312.455 255.405,313.396 254.665,314.091 254.173 C 314.785 253.681,315.907 252.566,316.584 251.695 C 317.260 250.825,318.272 249.572,318.831 248.912 C 321.528 245.728,321.977 244.694,321.124 243.640 C 320.578 242.967,318.680 243.215,318.680 243.959 C 318.680 244.235,316.017 247.623,314.669 249.062 C 312.484 251.395,307.694 254.464,306.238 254.464 C 305.976 254.464,304.993 254.734,304.054 255.064 C 301.925 255.812,295.283 255.948,294.708 255.256 C 294.522 255.031,293.650 254.773,292.770 254.682 C 291.890 254.591,290.644 254.235,290.001 253.890 C 289.357 253.545,288.644 253.263,288.415 253.263 C 287.085 253.263,280.270 247.265,280.270 246.094 C 280.270 245.786,280.074 245.372,279.835 245.174 C 279.596 244.976,279.242 244.318,279.047 243.712 C 278.853 243.106,278.503 242.392,278.271 242.125 C 278.038 241.858,277.695 240.777,277.508 239.724 C 277.321 238.671,276.955 237.559,276.694 237.253 C 275.938 236.366,275.984 218.478,276.744 217.637 C 277.033 217.318,277.269 216.719,277.269 216.305 C 277.269 215.100,277.929 212.153,278.199 212.153 C 278.335 212.153,278.638 211.512,278.872 210.728 C 279.325 209.209,280.363 207.275,281.238 206.320 C 281.531 206.000,281.770 205.638,281.770 205.515 C 281.770 205.253,285.435 201.652,285.703 201.651 C 285.802 201.651,286.248 201.313,286.693 200.900 C 287.139 200.488,287.671 200.150,287.877 200.150 C 288.083 200.150,288.415 199.987,288.613 199.789 C 289.007 199.395,291.437 198.684,292.461 198.663 C 292.813 198.656,293.268 198.447,293.473 198.200 C 293.767 197.846,294.605 197.749,297.374 197.749 C 300.144 197.749,300.982 197.846,301.275 198.200 C 301.481 198.447,301.950 198.650,302.318 198.650 C 303.173 198.650,304.894 199.226,305.476 199.707 C 305.724 199.912,306.264 200.179,306.677 200.302 C 307.089 200.424,307.668 200.778,307.964 201.087 C 308.259 201.397,308.679 201.650,308.898 201.650 C 309.462 201.650,313.278 205.899,313.278 206.527 C 313.278 206.705,313.484 207.065,313.736 207.327 C 314.591 208.215,315.679 210.077,315.679 210.652 C 315.679 211.346,316.291 212.753,316.593 212.753 C 316.713 212.753,316.902 213.359,317.013 214.100 C 317.327 216.193,318.590 217.001,319.745 215.846 C 320.367 215.224,320.210 211.934,319.491 210.503 C 319.138 209.801,319.008 208.013,318.903 202.389 C 318.755 194.450,318.632 193.848,317.162 193.848 C 316.473 193.848,316.182 194.039,315.902 194.674 C 314.939 196.853,313.372 197.587,311.628 196.675 C 311.133 196.416,310.053 196.024,309.227 195.803 C 308.402 195.582,307.225 195.187,306.611 194.925 C 305.998 194.663,304.691 194.449,303.707 194.449 C 302.511 194.449,301.768 194.298,301.465 193.995 C 301.003 193.533,294.388 193.115,293.023 193.461 M171.406 194.582 C 173.024 194.692,174.944 195.146,177.796 196.094 C 183.147 197.873,184.666 197.833,185.469 195.895 C 185.721 195.286,186.009 195.046,186.412 195.109 C 187.157 195.225,187.448 214.013,186.714 214.622 C 186.064 215.162,185.702 214.478,185.457 212.248 C 185.332 211.113,185.025 209.784,184.774 209.294 C 184.524 208.803,184.221 207.950,184.102 207.398 C 183.611 205.119,179.870 200.826,177.194 199.470 C 173.404 197.550,172.721 197.331,170.130 197.206 C 165.912 197.002,161.335 199.526,159.756 202.927 C 159.507 203.463,159.111 204.239,158.876 204.651 C 157.842 206.466,158.651 210.529,160.431 212.453 C 162.258 214.429,162.918 215.078,164.036 216.005 C 164.700 216.556,165.723 217.299,166.309 217.656 C 166.894 218.013,167.963 218.699,168.683 219.181 C 171.568 221.111,172.138 221.455,172.448 221.455 C 172.625 221.455,172.940 221.660,173.148 221.911 C 173.356 222.162,174.014 222.594,174.610 222.872 C 175.206 223.151,176.334 223.823,177.116 224.367 C 177.898 224.911,178.665 225.356,178.819 225.356 C 178.973 225.356,179.480 225.671,179.947 226.055 C 180.413 226.440,180.998 226.828,181.245 226.917 C 181.904 227.156,187.847 231.641,187.847 231.900 C 187.847 232.021,188.432 232.902,189.147 233.857 C 190.727 235.970,192.048 240.132,192.048 242.998 C 192.048 247.219,187.903 254.393,184.333 256.351 C 181.898 257.686,179.614 258.695,178.357 258.991 C 177.552 259.181,176.660 259.455,176.373 259.600 C 174.614 260.494,163.863 259.408,161.432 258.091 C 161.180 257.955,159.519 257.536,157.741 257.161 C 153.970 256.366,153.604 256.459,152.280 258.553 C 150.989 260.595,150.924 260.109,151.009 249.118 C 151.089 238.693,151.260 237.305,152.099 240.261 C 152.325 241.058,152.624 241.980,152.762 242.311 C 152.900 242.641,153.158 243.482,153.336 244.181 C 154.277 247.884,157.151 251.939,160.090 253.710 C 162.668 255.263,164.071 255.923,165.208 256.114 C 165.859 256.224,167.035 256.517,167.821 256.765 C 171.681 257.981,178.305 256.057,181.048 252.921 C 183.085 250.592,184.309 246.032,183.353 244.332 C 183.191 244.045,182.913 243.226,182.734 242.510 C 182.410 241.215,177.831 236.159,176.982 236.159 C 176.800 236.159,176.168 235.788,175.577 235.334 C 174.268 234.328,173.607 233.922,172.243 233.283 C 171.665 233.012,171.125 232.694,171.043 232.575 C 170.960 232.457,170.015 231.884,168.942 231.304 C 157.412 225.062,151.861 219.900,150.675 214.314 C 149.989 211.081,150.509 205.954,151.651 204.692 C 151.919 204.396,152.139 203.962,152.139 203.727 C 152.142 202.795,156.455 197.749,157.249 197.749 C 157.383 197.749,157.875 197.432,158.342 197.044 C 159.993 195.670,165.700 194.103,168.192 194.339 C 168.687 194.386,170.133 194.495,171.406 194.582 M302.576 194.738 C 304.034 194.892,305.392 195.154,305.594 195.322 C 305.796 195.489,306.746 195.831,307.705 196.081 C 308.664 196.330,309.624 196.680,309.837 196.857 C 311.546 198.276,316.279 197.059,316.279 195.201 C 316.279 193.505,317.636 194.965,317.811 196.849 C 317.910 197.922,318.147 199.272,318.336 199.850 C 318.540 200.470,318.670 202.744,318.654 205.401 C 318.639 207.877,318.776 210.817,318.960 211.935 C 319.196 213.371,319.200 214.141,318.976 214.561 C 318.356 215.719,317.479 215.109,317.479 213.519 C 317.479 213.142,317.229 212.512,316.923 212.118 C 316.617 211.725,316.268 210.863,316.147 210.203 C 316.027 209.542,315.748 208.800,315.528 208.552 C 315.308 208.305,314.408 207.013,313.528 205.682 C 311.612 202.784,310.116 201.445,306.752 199.617 C 306.380 199.415,305.840 199.121,305.551 198.964 C 300.987 196.482,294.368 196.492,288.522 198.989 C 285.287 200.371,279.148 206.798,278.613 209.362 C 278.517 209.825,278.182 210.743,277.869 211.403 C 277.556 212.063,277.102 213.346,276.861 214.254 C 276.619 215.161,276.275 216.460,276.095 217.139 C 275.916 217.818,275.767 218.966,275.764 219.690 C 275.762 220.413,275.593 221.482,275.389 222.064 C 274.527 224.526,275.547 237.049,276.847 239.955 C 277.079 240.475,277.269 241.166,277.269 241.490 C 277.269 241.814,277.539 242.423,277.869 242.843 C 278.200 243.262,278.470 243.719,278.470 243.858 C 278.474 245.306,284.286 252.363,285.475 252.363 C 285.708 252.363,286.061 252.559,286.259 252.798 C 286.955 253.637,290.528 255.050,294.153 255.921 C 298.218 256.897,306.261 255.892,309.227 254.037 C 312.987 251.686,315.210 249.815,316.749 247.706 C 319.121 244.455,320.098 243.679,320.860 244.441 C 321.421 245.002,315.227 252.650,312.978 254.173 C 312.401 254.564,311.830 255.041,311.710 255.234 C 311.590 255.427,311.050 255.760,310.510 255.974 C 309.969 256.188,309.325 256.526,309.077 256.726 C 308.830 256.925,308.121 257.251,307.502 257.450 C 306.883 257.648,306.377 257.920,306.377 258.052 C 306.377 258.185,305.060 258.528,303.451 258.815 C 301.842 259.101,300.365 259.464,300.170 259.620 C 299.706 259.993,290.103 259.750,288.522 259.326 C 287.862 259.149,286.714 258.854,285.971 258.670 C 283.964 258.173,279.029 255.887,278.445 255.184 C 278.253 254.953,277.919 254.764,277.703 254.764 C 276.430 254.764,269.075 245.848,268.181 243.221 C 268.010 242.720,267.622 241.989,267.319 241.595 C 267.015 241.201,266.761 240.526,266.754 240.095 C 266.746 239.663,266.535 238.770,266.284 238.110 C 264.742 234.059,264.738 222.582,266.277 218.069 C 266.546 217.279,266.767 216.355,266.767 216.015 C 266.767 215.675,267.025 215.033,267.341 214.590 C 267.657 214.146,268.008 213.290,268.121 212.688 C 268.234 212.085,268.583 211.360,268.897 211.076 C 269.211 210.792,269.470 210.412,269.473 210.231 C 269.478 209.931,270.482 208.307,271.796 206.474 C 272.705 205.206,277.899 200.181,278.497 199.991 C 278.812 199.891,279.070 199.698,279.070 199.562 C 279.070 199.426,279.576 199.097,280.195 198.831 C 280.814 198.565,281.523 198.221,281.770 198.068 C 283.850 196.783,289.096 194.923,291.373 194.664 C 293.487 194.424,299.996 194.467,302.576 194.738 M75.463 195.166 C 74.975 195.523,74.944 195.696,75.245 196.358 C 75.629 197.199,76.005 197.326,78.859 197.577 C 84.356 198.060,84.081 196.394,83.963 228.525 L 83.871 253.749 83.019 254.762 C 81.777 256.237,79.733 257.144,77.625 257.155 C 74.865 257.170,73.933 257.943,75.622 258.816 C 77.063 259.561,102.667 259.353,103.430 258.590 C 104.297 257.722,103.429 257.177,101.020 257.077 C 99.903 257.030,98.895 256.839,98.779 256.652 C 98.663 256.465,98.165 256.216,97.671 256.098 C 94.879 255.434,94.634 254.025,94.824 239.760 L 94.974 228.507 109.077 228.435 C 116.834 228.395,123.344 228.468,123.544 228.596 C 123.955 228.858,124.165 251.001,123.776 253.047 C 123.513 254.434,122.232 255.964,121.335 255.964 C 120.971 255.964,120.440 256.197,120.155 256.482 C 119.796 256.841,119.010 257.035,117.592 257.115 C 115.254 257.248,114.489 257.753,115.340 258.605 C 116.116 259.381,141.404 259.545,143.007 258.785 C 144.594 258.031,143.717 257.165,141.364 257.162 C 140.193 257.161,139.412 256.980,138.785 256.564 C 138.290 256.236,137.614 255.967,137.284 255.966 C 136.952 255.965,136.282 255.461,135.784 254.839 L 134.884 253.713 134.791 228.507 C 134.686 199.709,134.640 200.662,136.213 199.008 C 137.273 197.893,137.508 197.792,139.421 197.615 C 143.431 197.246,143.436 197.244,143.436 196.118 C 143.436 195.478,143.263 195.047,142.961 194.931 C 141.990 194.558,115.970 194.727,115.589 195.109 C 114.424 196.274,115.544 197.445,117.835 197.457 C 120.186 197.468,121.542 197.921,122.705 199.084 L 123.781 200.159 123.951 211.783 C 124.053 218.835,124.010 223.553,123.839 223.781 C 123.429 224.327,95.326 224.327,94.916 223.781 C 94.745 223.553,94.701 218.835,94.804 211.783 L 94.974 200.159 96.063 199.071 C 97.207 197.926,98.573 197.488,101.070 197.462 C 103.220 197.441,104.293 196.236,103.166 195.109 C 102.599 194.542,76.242 194.597,75.463 195.166 M198.275 195.073 C 196.812 195.925,198.074 197.448,200.246 197.453 C 203.663 197.460,205.783 198.579,206.374 200.687 C 206.499 201.134,206.602 213.271,206.602 227.658 L 206.602 253.815 205.851 254.625 C 204.358 256.239,202.862 256.944,200.610 257.098 C 197.439 257.314,196.633 257.927,198.352 258.816 C 200.222 259.783,239.326 259.157,241.166 258.130 C 241.526 257.929,242.108 257.764,242.459 257.764 C 243.041 257.764,245.868 256.625,246.962 255.949 C 247.209 255.797,247.797 255.457,248.267 255.194 C 249.763 254.360,253.472 250.347,253.672 249.347 C 253.773 248.841,254.060 248.223,254.309 247.974 C 254.559 247.724,254.839 247.158,254.932 246.716 C 255.024 246.273,255.295 245.468,255.532 244.926 C 256.120 243.584,256.110 239.208,255.516 238.069 C 255.269 237.596,255.067 236.979,255.066 236.698 C 255.063 236.050,254.437 234.659,254.148 234.659 C 254.027 234.659,253.850 234.346,253.754 233.963 C 253.658 233.580,252.887 232.601,252.041 231.787 C 251.195 230.973,250.280 230.092,250.008 229.828 C 249.332 229.175,246.694 227.821,245.701 227.618 C 245.255 227.527,244.514 227.130,244.055 226.735 L 243.221 226.017 244.458 225.684 C 245.355 225.443,246.261 224.782,247.754 223.282 C 250.827 220.193,250.536 220.635,251.918 216.954 C 252.684 214.912,252.424 208.289,251.511 206.606 C 251.155 205.948,250.863 205.246,250.863 205.045 C 250.863 204.357,244.934 198.713,243.994 198.507 C 243.503 198.399,242.942 198.118,242.746 197.882 C 242.551 197.647,241.833 197.311,241.150 197.137 C 240.468 196.963,239.277 196.557,238.504 196.235 C 237.631 195.871,236.380 195.645,235.203 195.638 C 234.130 195.632,232.983 195.442,232.558 195.199 C 231.627 194.667,199.177 194.547,198.275 195.073 M99.451 196.223 C 99.955 196.779,99.921 196.808,98.345 197.135 C 94.188 197.998,93.623 199.921,93.623 213.224 L 93.623 223.468 94.359 224.262 L 95.095 225.056 109.377 225.056 L 123.658 225.056 124.395 224.320 L 125.131 223.583 125.127 213.442 C 125.122 200.406,124.464 197.896,120.892 197.293 C 119.561 197.068,119.222 196.711,119.744 196.082 C 120.394 195.298,139.085 195.591,139.085 196.385 C 139.085 196.824,138.767 197.049,137.814 197.285 C 136.167 197.692,135.099 198.792,134.409 200.792 C 133.595 203.149,133.570 251.067,134.382 253.284 C 135.380 256.011,137.999 257.764,141.073 257.764 C 142.507 257.764,143.000 258.122,142.061 258.483 C 141.441 258.720,117.224 258.720,116.604 258.483 C 115.658 258.120,116.162 257.764,117.621 257.764 C 120.886 257.764,123.554 255.857,124.593 252.778 C 125.343 250.556,125.274 229.271,124.513 228.511 C 123.804 227.802,94.952 227.801,94.242 228.510 C 93.691 229.060,93.354 251.225,93.886 251.870 C 94.042 252.058,94.260 252.697,94.371 253.289 C 94.804 255.606,98.065 257.764,101.134 257.764 C 102.593 257.764,103.096 258.120,102.151 258.483 C 101.535 258.719,77.480 258.713,76.598 258.476 C 75.511 258.185,76.139 257.765,77.662 257.763 C 80.976 257.759,83.511 256.035,84.413 253.172 C 85.233 250.573,85.176 203.206,84.350 200.809 C 83.682 198.870,82.419 197.570,80.929 197.291 C 79.709 197.062,79.378 196.753,79.634 196.085 C 79.928 195.317,98.750 195.448,99.451 196.223 M234.809 196.153 C 236.129 196.295,237.496 196.573,237.846 196.771 C 238.197 196.968,239.140 197.277,239.942 197.457 C 240.744 197.636,241.605 197.959,241.856 198.174 C 242.106 198.389,242.733 198.706,243.249 198.879 C 244.758 199.384,249.405 203.681,250.161 205.269 C 252.011 209.162,252.393 212.772,251.313 216.174 C 250.900 217.474,250.563 218.669,250.563 218.828 C 250.563 219.186,249.488 220.532,247.627 222.506 C 246.107 224.117,245.704 224.410,243.736 225.335 C 242.305 226.008,242.336 225.954,242.803 226.980 C 243.071 227.569,243.503 227.806,244.793 228.074 C 253.116 229.802,257.533 239.702,253.622 247.862 C 251.745 251.777,247.959 255.397,245.011 256.097 C 244.516 256.215,243.908 256.481,243.661 256.688 C 243.160 257.108,239.819 257.764,238.184 257.764 C 237.603 257.764,236.741 257.966,236.268 258.213 C 235.385 258.673,200.287 258.929,199.126 258.483 C 198.211 258.132,199.003 257.764,200.673 257.764 C 203.844 257.764,206.286 255.918,207.180 252.845 C 207.842 250.566,207.729 203.755,207.055 201.050 C 206.558 199.058,204.951 197.329,203.311 197.021 C 196.968 195.831,224.712 195.067,234.809 196.153 M218.836 199.054 C 216.191 199.775,216.354 198.924,216.354 212.004 L 216.354 223.563 218.042 224.310 C 220.144 225.239,229.004 225.436,231.358 224.606 C 232.060 224.359,233.041 224.156,233.538 224.156 C 236.003 224.156,239.528 221.152,240.676 218.072 C 243.190 211.328,240.419 203.734,234.359 200.759 C 233.286 200.232,232.174 199.677,231.887 199.526 C 231.600 199.374,231.035 199.250,230.629 199.250 C 230.224 199.250,229.809 199.115,229.707 198.950 C 229.450 198.533,220.430 198.620,218.836 199.054 M229.557 199.700 C 229.763 199.947,230.311 200.150,230.775 200.150 C 231.813 200.150,233.055 200.604,233.652 201.201 C 233.899 201.448,234.371 201.650,234.700 201.650 C 235.292 201.650,238.560 204.651,238.560 205.195 C 238.560 205.351,238.764 205.647,239.013 205.854 C 239.262 206.061,239.676 206.953,239.933 207.836 C 240.189 208.719,240.526 209.519,240.680 209.615 C 241.149 209.905,241.006 215.518,240.513 216.170 C 240.277 216.481,239.995 217.331,239.886 218.059 C 239.670 219.500,237.481 222.086,236.110 222.521 C 235.731 222.642,235.041 223.021,234.577 223.363 C 233.576 224.103,218.552 224.369,217.839 223.659 C 217.469 223.291,217.341 201.037,217.706 200.447 C 217.807 200.284,218.194 200.150,218.565 200.150 C 218.936 200.150,219.502 199.952,219.823 199.709 C 220.681 199.060,229.020 199.052,229.557 199.700 M219.505 227.987 C 216.233 228.205,216.354 227.678,216.354 241.714 L 216.354 253.181 217.145 253.973 C 217.703 254.530,218.251 254.764,219.001 254.764 C 219.587 254.764,220.905 254.974,221.930 255.231 C 228.521 256.884,237.484 254.738,241.469 250.552 C 244.137 247.750,244.861 246.038,244.861 242.534 C 244.861 232.384,235.356 226.931,219.505 227.987 M229.666 228.809 C 230.138 229.055,231.421 229.395,232.517 229.564 C 234.223 229.827,235.987 230.541,238.802 232.108 C 239.637 232.573,242.461 235.487,242.461 235.884 C 242.461 236.079,242.764 236.727,243.136 237.324 C 243.746 238.305,243.811 238.787,243.811 242.311 C 243.811 246.118,243.730 246.546,242.673 248.320 C 241.615 250.095,237.524 253.263,236.291 253.263 C 236.010 253.263,235.291 253.567,234.694 253.938 C 232.588 255.248,218.548 254.859,217.804 253.470 C 217.518 252.936,217.352 237.811,217.540 229.354 C 217.559 228.474,217.833 228.432,223.706 228.394 C 227.695 228.368,228.994 228.458,229.666 228.809 " stroke="none" fill="#858585" fill-rule="evenodd"></path><path id="path4" d="M129.069 24.330 C 128.072 24.729,60.414 92.424,60.047 93.389 C 59.767 94.125,59.941 94.364,62.759 97.125 C 64.415 98.748,66.197 100.527,66.719 101.080 C 67.536 101.946,107.993 142.374,109.007 143.338 C 109.311 143.628,118.244 152.583,119.508 153.866 C 119.713 154.074,121.670 156.030,123.858 158.213 C 126.046 160.396,127.903 162.391,127.984 162.646 C 128.489 164.238,123.943 164.141,198.014 164.141 L 266.153 164.141 266.644 163.391 C 266.941 162.938,267.419 162.641,267.850 162.641 C 269.178 162.641,336.792 94.687,336.570 93.576 C 336.439 92.924,328.021 84.332,302.931 59.244 C 284.526 40.841,269.467 25.672,269.467 25.535 C 269.467 25.399,268.614 24.999,267.571 24.647 L 265.674 24.006 197.728 24.025 C 155.457 24.037,129.513 24.152,129.069 24.330 M264.891 25.551 C 265.253 25.913,232.701 58.815,231.981 58.815 C 231.793 58.815,224.072 66.375,214.823 75.615 L 198.006 92.416 197.203 91.983 C 196.761 91.744,189.898 85.028,181.953 77.057 C 166.968 62.025,164.604 59.708,163.091 58.562 C 162.249 57.925,148.669 44.468,136.384 32.096 C 130.377 26.047,130.187 25.895,129.503 26.579 C 129.078 27.004,129.032 33.623,129.032 94.559 L 129.032 162.069 95.016 128.071 C 62.487 95.560,61.016 94.043,61.358 93.365 C 61.635 92.819,93.676 60.494,97.974 56.424 C 98.470 55.955,103.263 51.162,108.627 45.772 C 113.991 40.382,118.785 35.590,119.280 35.122 C 119.775 34.654,121.552 32.873,123.228 31.164 C 127.862 26.441,128.576 25.832,129.830 25.538 C 131.651 25.110,264.463 25.123,264.891 25.551 M302.119 59.763 C 320.635 78.274,335.782 93.567,335.780 93.746 C 335.773 94.321,268.650 161.227,268.298 161.009 C 267.747 160.669,267.844 26.107,268.396 26.107 C 268.428 26.107,283.604 41.252,302.119 59.763 M266.694 94.209 C 266.652 130.939,266.504 161.165,266.366 161.378 C 266.188 161.653,261.301 156.949,249.562 145.205 C 240.457 136.097,232.622 128.407,232.150 128.116 C 231.259 127.568,228.788 125.209,223.790 120.139 C 207.111 103.214,198.078 94.474,197.464 94.669 C 197.109 94.782,189.500 102.185,180.555 111.121 C 171.610 120.057,163.718 127.809,163.017 128.347 C 162.316 128.886,154.630 136.443,145.936 145.141 C 132.578 158.505,130.095 160.864,129.902 160.372 C 129.642 159.708,129.558 28.149,129.818 27.474 C 129.933 27.172,135.048 32.090,145.965 42.999 C 154.753 51.780,162.403 59.302,162.965 59.715 C 163.527 60.128,171.384 67.850,180.424 76.876 C 189.465 85.902,197.131 93.372,197.461 93.477 C 197.925 93.624,198.523 93.207,200.121 91.620 C 201.255 90.494,202.974 88.815,203.942 87.889 C 204.910 86.963,206.730 85.140,207.987 83.838 C 209.244 82.536,211.945 79.832,213.989 77.830 C 216.032 75.828,218.460 73.398,219.383 72.429 C 220.306 71.460,222.331 69.429,223.884 67.914 C 225.436 66.400,227.652 64.188,228.807 62.998 C 229.962 61.809,231.380 60.533,231.958 60.164 C 232.536 59.794,240.435 52.050,249.512 42.954 C 264.072 28.366,266.061 26.477,266.394 26.923 C 266.696 27.327,266.756 40.910,266.694 94.209 M215.229 112.903 C 224.280 121.939,231.824 129.332,231.995 129.332 C 232.429 129.332,264.966 161.851,264.966 162.286 C 264.966 162.481,264.662 162.642,264.291 162.644 C 235.824 162.782,130.373 162.556,129.875 162.356 C 129.263 162.111,129.251 162.076,129.773 162.060 C 130.139 162.048,136.476 155.940,146.427 146.008 C 155.262 137.190,163.098 129.484,163.841 128.882 C 164.870 128.049,171.741 121.350,175.156 117.851 C 176.451 116.524,185.366 107.593,185.672 107.316 C 185.878 107.130,188.309 104.700,191.073 101.918 C 196.617 96.337,197.609 95.542,198.321 96.111 C 198.570 96.311,206.179 103.867,215.229 112.903 " stroke="none" fill="#fb8882" fill-rule="evenodd"></path></g></svg>